<svg width="172" height="171" viewBox="0 0 172 171" fill="none" xmlns="http://www.w3.org/2000/svg">
<path d="M65.6492 104.723L84.5 123.5L44 168.5L21 149.5L65.6492 104.723Z" fill="#2D6FF7"/>
<path d="M42 53C54.086 53 65.0817 60.47 72.9141 69.4316L139.5 136.5L117.869 154.318L84.5439 118.989L84.584 118.941L68.0498 101.546L67.2842 102.161L68.2119 101.178L63.9062 97L63.8535 97.0557L60.5 93.5L60.623 93.1719C56.3854 88.9308 49.875 83.1607 45.873 81.4277C39.127 78.5065 28.0798 78.7084 26.0078 89.0137C23.9359 99.3189 32.3038 104.139 40.3545 104.357C47.157 104.542 58.4114 99.2688 62.8848 98.1094L45.5 117L32.7715 129.728C12.6512 126.243 0 111.288 0 92C0 69.9086 16.5949 53 42 53ZM74.7461 113.746C67.6238 122.497 56.8237 130.5 42 130.5C41.3433 130.5 40.6926 130.486 40.0479 130.464L50 120.5L65.2832 104.283L74.7461 113.746Z" fill="#2D6FF7"/>
<path d="M130 52C155.405 52 172 69.9086 172 92C172 111.408 160.734 126.814 140.771 130.271L107.987 97.4873C111.032 99.0794 123.893 104.025 129.969 104.524C137.295 105.127 147.694 101.391 146.35 90.9658C145.006 80.5406 135.534 78.6612 127.839 81.0371C120.144 83.413 109.557 97.1442 107.5 97L89.6719 79.1719C99.4835 67.0833 114.776 52 130 52Z" fill="#2D6FF7"/>
<path d="M86 0C108.091 0 126.5 18.5949 126.5 44C126.5 45.6891 126.318 47.365 125.983 49.0234C110.866 50.3965 100.632 58.4989 93.6074 67.8271C93.462 68.0529 93.2854 68.29 93.0664 68.5322C91.8574 69.8693 90.8801 70.1068 89.9033 70.3447C88.9955 70.5653 89.8458 67.2042 90.9414 65.6562C94.0458 59.1549 97.646 51.0033 98.6611 46.9541C100.59 39.2601 98.3393 27.5621 86.7773 27.2246C75.2154 26.8871 71.5254 36.6472 72.7686 45.2383C73.5343 50.5285 78.5665 59.7693 82.2021 66.5938C82.3012 66.7184 82.4018 66.8527 82.5 67C83.5 68.5 83.5 69.5 83.5 70.5C83.5 71.2559 81.501 70.2965 80.0928 69.1357C80.1023 69.1496 80.1116 69.1637 80.1211 69.1777C80.0979 69.1518 80.074 69.1265 80.0508 69.1006C79.614 68.7362 79.2365 68.3548 79 68C78.9683 67.9524 78.941 67.9043 78.9131 67.8584C70.2931 58.6215 58.7764 50.59 47.0186 49.21C46.363 46.8276 46 44.4176 46 42C46 16.5949 63.9086 0 86 0Z" fill="#2D6FF7"/>
</svg>
